<svg xmlns="http://www.w3.org/2000/svg" width="444.826" height="725.238" viewBox="0 0 444.826 725.238">
  <g id="Grupo_21" data-name="Grupo 21" transform="translate(1925 730)">
    <path id="Trazado_29" data-name="Trazado 29" d="M-1794.5-644.893l29.608-29.608-13.3-13.3,13.3-13.3,43.261,43.261-12.94,12.94-12.94-12.94-30.678,30.678Z" transform="translate(-59.456 866.64) rotate(18)" fill="#ffa04e"/>
    <path id="Trazado_27" data-name="Trazado 27" d="M-1794.5-644.893l29.608-29.608-13.3-13.3,13.3-13.3,43.261,43.261-12.94,12.94-12.94-12.94-30.678,30.678Z" transform="translate(41.816 14.872)" fill="#ffa04e"/>
    <path id="Trazado_23" data-name="Trazado 23" d="M-1881.649-233.275l26.924,88.533L-1887.1-29.307h40.834l42.4-115.435-42.4-73.927Z" transform="translate(41.816 14.872)" fill="#f6663f"/>
    <path id="Trazado_24" data-name="Trazado 24" d="M-1712.047-195.493s7.941,30.151,45.418,64.8c-8.288,63.666-11.278,101.554-11.278,101.554h39.889l15.059-118.5-54.948-65.537Z" transform="translate(41.816 14.872)" fill="#f6663f"/>
    <path id="Trazado_22" data-name="Trazado 22" d="M-1913.476-505.35c1.532-3.346-94.665,196.685,74.4,294.575,26.262,47.065,36.893,70.784,36.893,70.784l-36.893,118.357h41.26l45.9-118.357-11.675-53.074a563.734,563.734,0,0,0,87.547-11.839c39.972,57.276,42.84,55.962,48.845,64.913,1.412,45.585,0,118.357,0,118.357h40.088l8.387-118.357-25.631-53.074s16.333-96.791,8.114-94.874c-10.746-23.759,18.681-23.228-53.546-66.524-49.837-29.875-116.928-26.328-162.792-15.835-20.372,4.661-36.587,10.753-44.981,15.835-21.157-28.686-24.973-96.371,13.487-136.433,6.884-7.171,30.651-1.563,55.34-24.928,4.382-4.946,14.056-6.631,25.143-42.341,10.847-23.817-12.947-70.954-12.947-70.954s-5.606-5.931-11.406-11.492a69.477,69.477,0,0,0-8.978-7.654c-2.188-1.336-4.7-4-9.563-6.392-2.433-1.193-8.224-1.049-8.721-4.036-1.075-6.466-17.1-7.6-21.8-7.434-8.259.287-15.673-.854-24.309,0-13.152,1.3-21.851,9.009-34.987,11.47-16.233,3.041-43.114,6.278-53.079,14.038-4.618,3.6-10.887,10.07-14.666,21.61-1.917,5.848-2.763,11.9,0,22.739,2.288,16.176,24.719,35.7,27.067,45.158,6.5,15.295,28.018,32.181,27.371,31.811" transform="translate(40.816 16.872)" fill="#ffa04e"/>
    <g id="Grupo_18" data-name="Grupo 18" transform="translate(41.816 14.872)">
      <circle id="Elipse_30" data-name="Elipse 30" cx="24.5" cy="24.5" r="24.5" transform="translate(-1788 -343)" fill="#f6663f"/>
      <circle id="Elipse_31" data-name="Elipse 31" cx="23.5" cy="23.5" r="23.5" transform="translate(-1713 -347)" fill="#f6663f"/>
      <circle id="Elipse_32" data-name="Elipse 32" cx="15.5" cy="15.5" r="15.5" transform="translate(-1650 -317)" fill="#f6663f"/>
      <circle id="Elipse_33" data-name="Elipse 33" cx="17.5" cy="17.5" r="17.5" transform="translate(-1848 -315)" fill="#f6663f"/>
      <circle id="Elipse_34" data-name="Elipse 34" cx="13" cy="13" r="13" transform="translate(-1882 -275)" fill="#f6663f"/>
    </g>
    <g id="Grupo_19" data-name="Grupo 19" transform="translate(41.816 14.872)">
      <g id="Trazado_30" data-name="Trazado 30" transform="translate(-1882 -625)" fill="#f6663f">
        <path d="M 32 61.5 C 28.01642227172852 61.5 24.15333366394043 60.72036743164062 20.51803398132324 59.18276596069336 C 17.00550079345703 57.69709014892578 13.8503885269165 55.5696907043457 11.14035511016846 52.85964584350586 C 8.43031120300293 50.14961242675781 6.302911281585693 46.99449920654297 4.817233562469482 43.48196792602539 C 3.279633283615112 39.8466682434082 2.5 35.98357772827148 2.5 32 C 2.5 28.01642227172852 3.279633283615112 24.15333366394043 4.817233562469482 20.51803398132324 C 6.302911281585693 17.00550079345703 8.43031120300293 13.8503885269165 11.14035511016846 11.14035511016846 C 13.8503885269165 8.43031120300293 17.00550079345703 6.302911281585693 20.51803398132324 4.817233562469482 C 24.15333366394043 3.279633283615112 28.01642227172852 2.5 32 2.5 C 35.98357772827148 2.5 39.8466682434082 3.279633283615112 43.48196792602539 4.817233562469482 C 46.99449920654297 6.302911281585693 50.14961242675781 8.43031120300293 52.85964584350586 11.14035511016846 C 55.5696907043457 13.8503885269165 57.69709014892578 17.00550079345703 59.18276596069336 20.51803398132324 C 60.72036743164062 24.15333366394043 61.5 28.01642227172852 61.5 32 C 61.5 35.98357772827148 60.72036743164062 39.8466682434082 59.18276596069336 43.48196792602539 C 57.69709014892578 46.99449920654297 55.5696907043457 50.14961242675781 52.85964584350586 52.85964584350586 C 50.14961242675781 55.5696907043457 46.99449920654297 57.69709014892578 43.48196792602539 59.18276596069336 C 39.8466682434082 60.72036743164062 35.98357772827148 61.5 32 61.5 Z" stroke="none"/>
        <path d="M 32 5 C 28.35282516479492 5 24.81738662719727 5.713188171386719 21.49192047119141 7.119747161865234 C 18.27737426757812 8.479373931884766 15.38937377929688 10.4268684387207 12.90811920166016 12.90811920166016 C 10.4268684387207 15.38937377929688 8.479373931884766 18.27737426757812 7.119747161865234 21.49192047119141 C 5.713188171386719 24.81738662719727 5 28.35282516479492 5 32 C 5 35.64717102050781 5.713188171386719 39.18261337280273 7.119747161865234 42.50807952880859 C 8.479373931884766 45.72262573242188 10.4268684387207 48.61062622070312 12.90811920166016 51.09188079833984 C 15.38937377929688 53.57313537597656 18.27737426757812 55.52062606811523 21.49192047119141 56.88025283813477 C 24.81738662719727 58.28681182861328 28.35282516479492 59 32 59 C 35.64717102050781 59 39.18261337280273 58.28681182861328 42.50807952880859 56.88025283813477 C 45.72262573242188 55.52062606811523 48.61062622070312 53.57313537597656 51.09188079833984 51.09188079833984 C 53.57313537597656 48.61062622070312 55.52062606811523 45.72262573242188 56.88025283813477 42.50807952880859 C 58.28681182861328 39.18261337280273 59 35.64717102050781 59 32 C 59 28.35282516479492 58.28681182861328 24.81738662719727 56.88025283813477 21.49192047119141 C 55.52062606811523 18.27737426757812 53.57313537597656 15.38937377929688 51.09188079833984 12.90811920166016 C 48.61062622070312 10.4268684387207 45.72262573242188 8.479373931884766 42.50807952880859 7.119747161865234 C 39.18261337280273 5.713188171386719 35.64717102050781 5 32 5 M 32 0 C 49.6731071472168 0 64 14.3268928527832 64 32 C 64 49.6731071472168 49.6731071472168 64 32 64 C 14.3268928527832 64 0 49.6731071472168 0 32 C 0 14.3268928527832 14.3268928527832 0 32 0 Z" stroke="none" fill="#fff"/>
      </g>
      <path id="Polígono_3" data-name="Polígono 3" d="M15,0,30,28H0Z" transform="translate(-1855.519 -581.311) rotate(-66)" fill="#fff"/>
    </g>
    <path id="Trazado_28" data-name="Trazado 28" d="M-1794.5-644.893l29.608-29.608-13.3-13.3,13.3-13.3,43.261,43.261-12.94,12.94-12.94-12.94-30.678,30.678Z" transform="translate(92.818 -919.227) rotate(-28)" fill="#ffa04e"/>
    <g id="Grupo_17" data-name="Grupo 17" transform="translate(43.816 11.872)">
      <g id="Elipse_21" data-name="Elipse 21" transform="translate(-1943 -663)" fill="none" stroke="#f6663f" stroke-width="15">
        <circle cx="92" cy="92" r="92" stroke="none"/>
        <circle cx="92" cy="92" r="84.5" fill="none"/>
      </g>
      <g id="Trazado_19" data-name="Trazado 19" transform="translate(-1907.885 -375.04)" fill="none">
        <path d="M155.927,0c86.116,0,155.927,43.125,155.927,96.323s-69.811,96.323-155.927,96.323a241.153,241.153,0,0,1-62.2-7.968C38.747,170,0,135.955,0,96.323,0,43.125,69.811,0,155.927,0Z" stroke="none"/>
        <path d="M 155.9273834228516 14.99998474121094 C 79.53684997558594 14.99998474121094 15 52.24125671386719 15 96.32277679443359 C 15 127.3107223510742 48.19500732421875 156.9939270019531 97.60185241699219 170.1857757568359 C 116.1389617919922 175.1357269287109 135.7624816894531 177.6455688476562 155.9273834228516 177.6455688476562 C 232.3179016113281 177.6455688476562 296.854736328125 140.404296875 296.854736328125 96.32277679443359 C 296.854736328125 52.24125671386719 232.3179016113281 14.99998474121094 155.9273834228516 14.99998474121094 M 155.9273834228516 -1.52587890625e-05 C 242.043701171875 -1.52587890625e-05 311.8547668457031 43.12519836425781 311.8547668457031 96.32277679443359 C 311.8547668457031 149.5204162597656 242.043701171875 192.6455688476562 155.9273834228516 192.6455688476562 C 133.9677581787109 192.6455688476562 113.0683288574219 189.8413543701172 93.73200988769531 184.6779937744141 C 38.74685668945312 169.9967193603516 0 135.9549865722656 0 96.32277679443359 C 0 43.12519836425781 69.81106567382812 -1.52587890625e-05 155.9273834228516 -1.52587890625e-05 Z" stroke="none" fill="#f6663f"/>
      </g>
      <path id="Trazado_20" data-name="Trazado 20" d="M-1851-479s-57.414,82.416,0,137.128" transform="translate(0 -6.133)" fill="none" stroke="#f6663f" stroke-width="15"/>
      <line id="Línea_12" data-name="Línea 12" y1="32" x2="32" transform="translate(-1794.5 -666.5)" fill="none" stroke="#f6663f" stroke-width="15"/>
    </g>
  </g>
</svg>
