<svg xmlns="http://www.w3.org/2000/svg" width="457.289" height="725.238" viewBox="0 0 457.289 725.238">
  <g id="Grupo_21" data-name="Grupo 21" transform="translate(1966.816 744.872)">
    <path id="Trazado_27" data-name="Trazado 27" d="M-1794.5-644.893l29.608-29.608-13.3-13.3,13.3-13.3,43.261,43.261-12.94,12.94-12.94-12.94-30.678,30.678Z" fill="#ffa04e"/>
    <path id="Trazado_23" data-name="Trazado 23" d="M-1881.649-233.275l26.924,88.533L-1887.1-29.307h40.834l42.4-115.435-42.4-73.927Z" fill="#f6663f"/>
    <path id="Trazado_24" data-name="Trazado 24" d="M-1712.047-195.493s7.941,30.151,45.418,64.8c-8.288,63.666-11.278,101.554-11.278,101.554h38.689l16.259-118.5-54.948-65.537Z" fill="#f6663f"/>
    <path id="Trazado_22" data-name="Trazado 22" d="M-1913.476-505.35c1.532-3.346-94.665,196.685,74.4,294.575,26.262,47.065,36.893,70.784,36.893,70.784l-36.893,118.357h44.45l42.708-118.357-11.675-53.074a563.734,563.734,0,0,0,87.547-11.839c39.972,57.276,42.84,47.869,48.845,56.82,1.412,45.585,0,126.45,0,126.45h36.911l12.379-131.6-22.967-43.72s11.236-88.074,3.016-86.157c-10.746-23.759,20.3-28.058-51.928-71.354-49.837-29.875-116.928-26.328-162.792-15.835-20.372,4.661-36.587,10.753-44.981,15.835-21.157-28.686-24.973-96.371,13.487-136.433,6.884-7.171,30.651-1.563,55.34-24.928,4.382-4.946,14.056-6.631,25.143-42.341,10.847-23.817-12.947-70.954-12.947-70.954s-5.606-5.931-11.406-11.492a69.477,69.477,0,0,0-8.978-7.654c-2.188-1.336-4.7-4-9.563-6.392-2.433-1.193-8.224-1.049-8.721-4.036-1.075-6.466-17.1-7.6-21.8-7.434-8.259.287-15.673-.854-24.309,0-13.152,1.3-21.851,9.009-34.987,11.47-16.233,3.041-43.114,6.278-53.079,14.038-4.618,3.6-10.887,10.07-14.666,21.61-1.917,5.848-2.763,11.9,0,22.739,2.288,16.176,24.719,35.7,27.067,45.158,6.5,15.295,28.018,32.181,27.371,31.811" transform="translate(-1 2)" fill="#ffa04e"/>
    <g id="Grupo_18" data-name="Grupo 18">
      <circle id="Elipse_30" data-name="Elipse 30" cx="24.5" cy="24.5" r="24.5" transform="translate(-1788 -343)" fill="#f6663f"/>
      <circle id="Elipse_31" data-name="Elipse 31" cx="23.5" cy="23.5" r="23.5" transform="translate(-1713 -347)" fill="#f6663f"/>
      <circle id="Elipse_32" data-name="Elipse 32" cx="15.5" cy="15.5" r="15.5" transform="translate(-1650 -317)" fill="#f6663f"/>
      <circle id="Elipse_33" data-name="Elipse 33" cx="17.5" cy="17.5" r="17.5" transform="translate(-1848 -315)" fill="#f6663f"/>
      <circle id="Elipse_34" data-name="Elipse 34" cx="13" cy="13" r="13" transform="translate(-1882 -275)" fill="#f6663f"/>
    </g>
    <path id="Trazado_25" data-name="Trazado 25" d="M-1560.441-307.942s.323,38.228,35.855,0c19.39-22.069,7.979-25.266,5.231-22.508-13.184,8.011-20.317,6.972-30.6,3.689S-1560.441-307.942-1560.441-307.942Z" transform="translate(-1)" fill="#f6663f" stroke="#ffa04e" stroke-width="10"/>
    <path id="Trazado_26" data-name="Trazado 26" d="M-1608.637-311.121s23.975,15.616,45.929,4.211" fill="none" stroke="#ffa04e" stroke-width="10"/>
    <g id="Grupo_19" data-name="Grupo 19">
      <g id="Elipse_35" data-name="Elipse 35" transform="translate(-1882 -625)" fill="#f6663f" stroke="#fff" stroke-width="5">
        <circle cx="32" cy="32" r="32" stroke="none"/>
        <circle cx="32" cy="32" r="29.5" fill="none"/>
      </g>
      <path id="Polígono_3" data-name="Polígono 3" d="M15,0,30,28H0Z" transform="translate(-1855.519 -581.311) rotate(-66)" fill="#fff"/>
    </g>
    <path id="Trazado_28" data-name="Trazado 28" d="M-1794.5-644.893l29.608-29.608-13.3-13.3,13.3-13.3,43.261,43.261-12.94,12.94-12.94-12.94-30.678,30.678Z" transform="translate(51.002 -934.099) rotate(-28)" fill="#ffa04e"/>
    <g id="Grupo_17" data-name="Grupo 17" transform="translate(2 -3)">
      <g id="Elipse_21" data-name="Elipse 21" transform="translate(-1943 -663)" fill="none" stroke="#f6663f" stroke-width="15">
        <circle cx="92" cy="92" r="92" stroke="none"/>
        <circle cx="92" cy="92" r="84.5" fill="none"/>
      </g>
      <g id="Trazado_19" data-name="Trazado 19" transform="translate(-1907.885 -375.04)" fill="none">
        <path d="M155.927,0c86.116,0,155.927,43.125,155.927,96.323s-69.811,96.323-155.927,96.323a241.153,241.153,0,0,1-62.2-7.968C38.747,170,0,135.955,0,96.323,0,43.125,69.811,0,155.927,0Z" stroke="none"/>
        <path d="M 155.9273834228516 14.99998474121094 C 79.53684997558594 14.99998474121094 15 52.24125671386719 15 96.32277679443359 C 15 127.3107223510742 48.19500732421875 156.9939270019531 97.60185241699219 170.1857757568359 C 116.1389617919922 175.1357269287109 135.7624816894531 177.6455688476562 155.9273834228516 177.6455688476562 C 232.3179016113281 177.6455688476562 296.854736328125 140.404296875 296.854736328125 96.32277679443359 C 296.854736328125 52.24125671386719 232.3179016113281 14.99998474121094 155.9273834228516 14.99998474121094 M 155.9273834228516 -1.52587890625e-05 C 242.043701171875 -1.52587890625e-05 311.8547668457031 43.12519836425781 311.8547668457031 96.32277679443359 C 311.8547668457031 149.5204162597656 242.043701171875 192.6455688476562 155.9273834228516 192.6455688476562 C 133.9677581787109 192.6455688476562 113.0683288574219 189.8413543701172 93.73200988769531 184.6779937744141 C 38.74685668945312 169.9967193603516 0 135.9549865722656 0 96.32277679443359 C 0 43.12519836425781 69.81106567382812 -1.52587890625e-05 155.9273834228516 -1.52587890625e-05 Z" stroke="none" fill="#f6663f"/>
      </g>
      <path id="Trazado_20" data-name="Trazado 20" d="M-1851-479s-57.414,82.416,0,137.128" transform="translate(0 -6.133)" fill="none" stroke="#f6663f" stroke-width="15"/>
      <line id="Línea_12" data-name="Línea 12" y1="32" x2="32" transform="translate(-1794.5 -666.5)" fill="none" stroke="#f6663f" stroke-width="15"/>
    </g>
  </g>
</svg>
