<svg xmlns="http://www.w3.org/2000/svg" width="248.384" height="131.383" viewBox="0 0 248.384 131.383">
  <g id="Grupo_23" data-name="Grupo 23" transform="translate(-93.816 -491.765)">
    <path id="Trazado_32" data-name="Trazado 32" d="M7-.8c0,.6.3.8.8.8h6.9c.6,0,.7-.2.7-.7V-48c0-.5-.2-.6-.6-.6H7.7c-.5,0-.7.2-.7.7Zm4.2-57.4a4.829,4.829,0,0,0,5.1-5.1,4.749,4.749,0,0,0-5-5.1,4.883,4.883,0,0,0-5.1,5.1A4.75,4.75,0,0,0,11.2-58.2Zm18.3,9.6c-.4,0-.5.2-.5.6.3,2.8.5,8.6.5,12.8V-.7c0,.5.2.7.7.7h7.1c.4,0,.6-.1.6-.6L38-33.8c2.5-4,8.8-7.4,15.7-7.3.6,0,.7-.1.7-.6v-7.2c0-.6-.2-.7-.7-.7-6.4,0-12.6,3.8-16.1,8.6a38.588,38.588,0,0,0-.8-6.9c-.2-.5-.3-.7-.9-.7ZM86.6-7.5a23.368,23.368,0,0,1-9.1,1.7c-8.8,0-11.9-4.4-11.9-8.9,0-5.6,4.7-8.9,14.4-8.9a47.634,47.634,0,0,1,6.6.4Zm8.1-23.3c0-10.4-5.3-18.8-18.1-18.8a33,33,0,0,0-14.2,3,.891.891,0,0,0-.5.8v6.1a.5.5,0,0,0,.7.5,26.771,26.771,0,0,1,12.7-3c9.8,0,11.3,6.9,11.3,10v2.4c-1.1-.1-3.2-.2-6.9-.2-12.4,0-22.3,4.7-22.3,15.3C57.4-4.2,65.4,1,76,1A41.2,41.2,0,0,0,94.7-3.3c.2-.1.2-.2.2-.4a37.745,37.745,0,0,1-.2-4.8Zm7.9-11.1c0,.4.1.5.4.5h6.6V-.7c0,.5.2.7.6.7h7.1c.5,0,.6-.3.6-.7V-41.4h17.3V-.7c0,.5.2.7.6.7h7.1c.5,0,.6-.3.6-.7V-41.4h9.6c.4,0,.6-.2.6-.7v-6c0-.3-.1-.5-.6-.5h-9.6v-5.1c0-10.6,4.1-11.6,7.7-11.6a10.444,10.444,0,0,1,3.8.6c.5.2.6-.1.6-.5v-5.9c0-.4,0-.6-.4-.8a11.868,11.868,0,0,0-5.1-.8c-8,0-14.9,4.8-15,18.8v5.3H117.9v-4.9c0-9.6,3.1-11.8,7.6-11.8a9.39,9.39,0,0,1,3.6.6c.4.1.6-.1.6-.5v-6.1a.824.824,0,0,0-.5-.8,11.359,11.359,0,0,0-4.5-.6q-9,0-12.9,7.5c-1.5,3-2.2,6.9-2.2,12.2v4.4h-6.5a.536.536,0,0,0-.5.5Zm85.2,18.6a82.194,82.194,0,0,0,10.3-.4.669.669,0,0,0,.7-.6,26.76,26.76,0,0,0,.4-5.2c0-8.5-5.2-20.1-19.5-20.1-13.9,0-22.1,11.7-22.1,25.7,0,12.2,6.2,24.9,23.5,24.9,6.3,0,10.7-1.2,14.1-2.9a1,1,0,0,0,.5-1V-8.6c0-.4-.2-.6-.5-.4a28.142,28.142,0,0,1-12.5,2.7c-11.3,0-16.8-7.5-16.7-17Zm-21.7-6.2c.9-6.7,5-13.2,13.3-13.2,9.4,0,11.8,8.3,11.8,11.9a4.1,4.1,0,0,1-.1,1.1c-.3.1-1.5.2-6.4.2Z" transform="translate(143 567)" fill="#ffa04e"/>
    <path id="Trazado_33" data-name="Trazado 33" d="M17.775-3.375c0-.135-.045-.225-.27-.18a11.386,11.386,0,0,1-4.185.63C9.135-2.925,5.4-5.58,5.4-10.98c0-4.9,3.285-8.01,7.92-8.01a10.445,10.445,0,0,1,4.14.675c.18.045.315.045.315-.18V-21.33c0-.225,0-.315-.18-.405a11.1,11.1,0,0,0-4.275-.585c-7.065,0-11.745,4.905-11.745,11.475C1.575-4.77,5.355.45,12.69.45a13.653,13.653,0,0,0,4.9-.72c.18-.045.18-.135.18-.315ZM30.825-22.32c-6.3,0-10.35,5.04-10.35,11.385C20.475-5.4,23.58.45,30.825.45c6.03,0,10.26-4.59,10.26-11.43C41.085-17.46,37.17-22.32,30.825-22.32Zm-.18,3.24c4.68,0,6.615,4,6.615,8.19,0,5.58-3.15,8.1-6.345,8.1-4.275,0-6.66-3.645-6.66-8.235C24.255-15.84,26.865-19.08,30.645-19.08ZM63.18-21.6c0-.18,0-.27-.27-.27H59.76c-.225,0-.315.09-.315.27V-5.175a6.745,6.745,0,0,1-5.22,2.3c-3.15,0-4.77-2.115-4.77-5.58V-21.6c0-.18-.045-.27-.225-.27h-3.2c-.225,0-.315.045-.315.27V-8.01c0,6.525,3.6,8.46,7.425,8.46A8.877,8.877,0,0,0,59.67-2.16a11.8,11.8,0,0,0,.27,1.935c.09.18.135.225.36.225h2.88c.225,0,.27-.09.27-.27a29.431,29.431,0,0,1-.27-4.5ZM69.525-.315c0,.225.09.315.27.315H72.99c.225,0,.27-.09.27-.315v-15.93a7.189,7.189,0,0,1,5.625-2.745c3.15,0,4.635,2.3,4.635,5.715V-.36c0,.27.09.36.315.36h3.15c.225,0,.315-.09.315-.315v-13.32c0-7.11-4.14-8.685-7.335-8.685a9.448,9.448,0,0,0-6.885,2.97,14.446,14.446,0,0,0-.27-2.25.394.394,0,0,0-.4-.27h-2.79c-.225,0-.27.09-.27.27.09.765.18,3.285.18,4.815ZM103-2.925c0-.225-.135-.225-.27-.18a6.145,6.145,0,0,1-2.115.36c-1.98,0-2.745-1.17-2.745-3.24V-18.63h4.77a.239.239,0,0,0,.27-.27v-2.655c0-.225-.09-.315-.27-.315h-4.77c0-2.2.135-4.815.27-6.39,0-.18-.09-.225-.27-.18l-3.06.5a.382.382,0,0,0-.315.315c-.18.99-.36,4.1-.405,5.76h-3.06c-.225,0-.315.09-.315.315v2.565c0,.225.045.315.315.36h3.06V-5.445c0,4.32,1.98,5.9,5.265,5.9a8.351,8.351,0,0,0,3.375-.63A.428.428,0,0,0,103-.63Zm15.8-7.56a36.987,36.987,0,0,0,4.635-.18.3.3,0,0,0,.315-.27,12.042,12.042,0,0,0,.18-2.34c0-3.825-2.34-9.045-8.775-9.045-6.255,0-9.945,5.265-9.945,11.565C105.21-5.265,108,.45,115.785.45a13.781,13.781,0,0,0,6.345-1.3.449.449,0,0,0,.225-.45V-3.87c0-.18-.09-.27-.225-.18a12.664,12.664,0,0,1-5.625,1.215c-5.085,0-7.56-3.375-7.515-7.65Zm-9.765-2.79c.4-3.015,2.25-5.94,5.985-5.94a5.245,5.245,0,0,1,5.31,5.355,1.846,1.846,0,0,1-.045.495,17.969,17.969,0,0,1-2.88.09Zm19.44-8.6c-.18,0-.225.09-.225.27.135,1.26.225,3.87.225,5.76V-.315c0,.225.09.315.315.315h3.2c.18,0,.27-.045.27-.27l.045-14.94c1.125-1.8,3.96-3.33,7.065-3.285.27,0,.315-.045.315-.27V-22c0-.27-.09-.315-.315-.315a9.4,9.4,0,0,0-7.245,3.87,17.364,17.364,0,0,0-.36-3.1c-.09-.225-.135-.315-.4-.315Z" transform="translate(200 605)" fill="#ffa04e"/>
    <g id="Grupo_22" data-name="Grupo 22">
      <line id="Línea_12" data-name="Línea 12" y1="10.872" x2="10.184" transform="translate(132.316 494.5)" fill="none" stroke="#f6663f" stroke-width="8"/>
      <path id="Trazado_31" data-name="Trazado 31" d="M-1051.684-198.015s-18.012,29.721,2.311,45.21" transform="translate(1169 735)" fill="none" stroke="#f6663f" stroke-width="8"/>
      <g id="Elipse_21" data-name="Elipse 21" transform="translate(93.816 494.872)" fill="none" stroke="#f6663f" stroke-width="8" opacity="0.999">
        <circle cx="23.5" cy="23.5" r="23.5" stroke="none"/>
        <circle cx="23.5" cy="23.5" r="19.5" fill="none"/>
      </g>
      <g id="Trazado_19" data-name="Trazado 19" transform="translate(102.931 571.833)" fill="none" opacity="0.999">
        <path d="M41.535,0C64.474,0,83.069,11.487,83.069,25.658s-18.6,25.658-41.535,25.658a64.236,64.236,0,0,1-16.567-2.122C10.321,45.282,0,36.215,0,25.658,0,11.487,18.6,0,41.535,0Z" stroke="none"/>
        <path d="M 41.53466796875 7.999996185302734 C 21.77218627929688 7.999996185302734 8.000007629394531 17.30583572387695 8.000007629394531 25.65767669677734 C 8.000007629394531 31.97221755981445 15.82596588134766 38.47191619873047 27.03148651123047 41.46383666992188 C 31.63238906860352 42.69241714477539 36.51196670532227 43.31535720825195 41.53466796875 43.31535720825195 C 61.29714965820312 43.31535720825195 75.06932830810547 34.00951385498047 75.06932830810547 25.65767669677734 C 75.06932830810547 17.30583572387695 61.29714965820312 7.999996185302734 41.53466796875 7.999996185302734 M 41.53466796875 -3.814697265625e-06 C 64.47362518310547 -3.814697265625e-06 83.06932830810547 11.48733520507812 83.06932830810547 25.65767669677734 C 83.06932830810547 39.82801818847656 64.47362518310547 51.31535720825195 41.53466796875 51.31535720825195 C 35.68522644042969 51.31535720825195 30.11822891235352 50.56839752197266 24.96756744384766 49.19301605224609 C 10.32109069824219 45.28235626220703 7.62939453125e-06 36.21459579467773 7.62939453125e-06 25.65767669677734 C 7.62939453125e-06 11.48733520507812 18.59571075439453 -3.814697265625e-06 41.53466796875 -3.814697265625e-06 Z" stroke="none" fill="#f6663f"/>
      </g>
    </g>
  </g>
</svg>
