<svg xmlns="http://www.w3.org/2000/svg" width="23.187" height="30" viewBox="0 0 23.187 30">
  <g id="remove" transform="translate(-43.215)">
    <path id="Trazado_5" data-name="Trazado 5" d="M65.22,7.112H65l.034-.931A2.879,2.879,0,0,0,62.154,3.2h-3.82V1.808A1.81,1.81,0,0,0,56.526,0H53.091a1.81,1.81,0,0,0-1.808,1.808V3.2h-3.82A2.879,2.879,0,0,0,44.587,6.18l.034.931H44.4a1.182,1.182,0,0,0,0,2.365h.311l.655,17.751A2.869,2.869,0,0,0,48.24,30H61.377a2.869,2.869,0,0,0,2.877-2.773l.655-17.751h.311a1.182,1.182,0,1,0,0-2.365ZM53.648,2.365h2.321V3.2H53.648Zm-6.7,3.728a.514.514,0,0,1,.514-.533h14.69a.514.514,0,0,1,.513.533L62.63,7.112H46.988ZM61.891,27.14a.512.512,0,0,1-.514.495H60.139V17.824a1.182,1.182,0,0,0-2.365,0v9.811H55.991V17.824a1.182,1.182,0,1,0-2.365,0v9.811H51.843V17.824a1.182,1.182,0,1,0-2.365,0v9.811H48.24a.512.512,0,0,1-.514-.495L47.075,9.476H62.542Z" fill="#fff"/>
  </g>
</svg>
